<svg width="19" height="26" viewBox="0 0 19 26" fill="none" xmlns="http://www.w3.org/2000/svg">
<path d="M3.18184 13.6019L16.7898 24.2915C17.2958 24.6893 18.0398 24.3306 18.0398 23.6896V2.31001C18.0398 1.66903 17.2958 1.31072 16.7898 1.70845L3.18184 12.3981C3.09052 12.4696 3.01667 12.561 2.96589 12.6653C2.9151 12.7695 2.88871 12.884 2.88871 13C2.88871 13.116 2.9151 13.2305 2.96589 13.3348C3.01667 13.439 3.09052 13.5304 3.18184 13.6019V13.6019ZM2.55684 25.5H0.284113C0.208767 25.5 0.136508 25.4701 0.083231 25.4168C0.0299536 25.3635 2.28882e-05 25.2913 2.28882e-05 25.2159V0.784091C2.28882e-05 0.708745 0.0299536 0.636485 0.083231 0.583208C0.136508 0.529931 0.208767 0.5 0.284113 0.5H2.55684C2.63219 0.5 2.70445 0.529931 2.75772 0.583208C2.811 0.636485 2.84093 0.708745 2.84093 0.784091V25.2159C2.84093 25.2913 2.811 25.3635 2.75772 25.4168C2.70445 25.4701 2.63219 25.5 2.55684 25.5Z" fill="#F1F1F1"/>
</svg>
