<svg width="19" height="26" viewBox="0 0 19 26" fill="none" xmlns="http://www.w3.org/2000/svg">
<path d="M15.8182 13.6019L2.21024 24.2915C1.7042 24.6893 0.960236 24.3306 0.960236 23.6896V2.31001C0.960236 1.66903 1.7042 1.31072 2.21024 1.70845L15.8182 12.3981C15.9095 12.4696 15.9834 12.561 16.0341 12.6653C16.0849 12.7695 16.1113 12.884 16.1113 13C16.1113 13.116 16.0849 13.2305 16.0341 13.3348C15.9834 13.439 15.9095 13.5304 15.8182 13.6019ZM16.4432 25.5H18.7159C18.7913 25.5 18.8635 25.4701 18.9168 25.4168C18.9701 25.3635 19 25.2913 19 25.2159V0.784091C19 0.708745 18.9701 0.636485 18.9168 0.583208C18.8635 0.529931 18.7913 0.5 18.7159 0.5H16.4432C16.3678 0.5 16.2956 0.529931 16.2423 0.583208C16.189 0.636485 16.1591 0.708745 16.1591 0.784091V25.2159C16.1591 25.2913 16.189 25.3635 16.2423 25.4168C16.2956 25.4701 16.3678 25.5 16.4432 25.5Z" fill="#F1F1F1"/>
</svg>
