<svg width="12" height="15" viewBox="0 0 12 15" fill="none" xmlns="http://www.w3.org/2000/svg">
<path d="M6 0C7.5913 0 9.11742 0.677294 10.2426 1.88289C11.3679 3.08848 12 4.72361 12 6.42857C12 9.09 10.1067 11.8786 6.4 14.8571C6.2846 14.9499 6.14425 15 6 15C5.85575 15 5.7154 14.9499 5.6 14.8571C1.89333 11.8786 0 9.09 0 6.42857C0 4.72361 0.632141 3.08848 1.75736 1.88289C2.88258 0.677294 4.4087 0 6 0ZM6 4.28571C5.46957 4.28571 4.96086 4.51148 4.58579 4.91334C4.21071 5.31521 4 5.86025 4 6.42857C4 6.99689 4.21071 7.54194 4.58579 7.9438C4.96086 8.34566 5.46957 8.57143 6 8.57143C6.53043 8.57143 7.03914 8.34566 7.41421 7.9438C7.78929 7.54194 8 6.99689 8 6.42857C8 5.86025 7.78929 5.31521 7.41421 4.91334C7.03914 4.51148 6.53043 4.28571 6 4.28571Z" fill="#FC8C54"/>
</svg>
