<svg width="45" height="46" viewBox="0 0 45 46" fill="none" xmlns="http://www.w3.org/2000/svg">
<path fill-rule="evenodd" clip-rule="evenodd" d="M45 23C45 28.9674 42.6295 34.6903 38.4099 38.9099C34.1903 43.1295 28.4674 45.5 22.5 45.5C16.5326 45.5 10.8097 43.1295 6.5901 38.9099C2.37053 34.6903 0 28.9674 0 23C0 17.0326 2.37053 11.3097 6.5901 7.0901C10.8097 2.87053 16.5326 0.5 22.5 0.5C28.4674 0.5 34.1903 2.87053 38.4099 7.0901C42.6295 11.3097 45 17.0326 45 23ZM14.0625 17.375C14.0625 16.6291 14.3588 15.9137 14.8863 15.3863C15.4137 14.8588 16.1291 14.5625 16.875 14.5625C17.6209 14.5625 18.3363 14.8588 18.8637 15.3863C19.3912 15.9137 19.6875 16.6291 19.6875 17.375V28.625C19.6875 29.3709 19.3912 30.0863 18.8637 30.6137C18.3363 31.1412 17.6209 31.4375 16.875 31.4375C16.1291 31.4375 15.4137 31.1412 14.8863 30.6137C14.3588 30.0863 14.0625 29.3709 14.0625 28.625V17.375ZM28.125 14.5625C27.3791 14.5625 26.6637 14.8588 26.1363 15.3863C25.6088 15.9137 25.3125 16.6291 25.3125 17.375V28.625C25.3125 29.3709 25.6088 30.0863 26.1363 30.6137C26.6637 31.1412 27.3791 31.4375 28.125 31.4375C28.8709 31.4375 29.5863 31.1412 30.1137 30.6137C30.6412 30.0863 30.9375 29.3709 30.9375 28.625V17.375C30.9375 16.6291 30.6412 15.9137 30.1137 15.3863C29.5863 14.8588 28.8709 14.5625 28.125 14.5625Z" fill="#FF6517"/>
</svg>
