<svg width="45" height="45" viewBox="0 0 45 45" fill="none" xmlns="http://www.w3.org/2000/svg">
<path d="M22.5 0C10.0748 0 0 10.0748 0 22.5C0 34.9252 10.0748 45 22.5 45C34.9252 45 45 34.9252 45 22.5C45 10.0748 34.9252 0 22.5 0ZM29.7372 22.8465L18.7684 30.827C18.7083 30.8702 18.6374 30.896 18.5636 30.9016C18.4897 30.9071 18.4158 30.8922 18.3499 30.8585C18.2839 30.8247 18.2286 30.7735 18.1899 30.7103C18.1512 30.6472 18.1307 30.5746 18.1306 30.5006V14.5497C18.1303 14.4755 18.1506 14.4027 18.1893 14.3393C18.2279 14.2759 18.2833 14.2245 18.3493 14.1907C18.4154 14.1569 18.4895 14.142 18.5635 14.1478C18.6374 14.1535 18.7084 14.1796 18.7684 14.2232L29.7372 22.1987C29.789 22.2353 29.8313 22.2839 29.8604 22.3402C29.8896 22.3966 29.9048 22.4591 29.9048 22.5226C29.9048 22.5861 29.8896 22.6486 29.8604 22.705C29.8313 22.7613 29.789 22.8099 29.7372 22.8465Z" fill="black"/>
</svg>
