<svg width="20" height="17" viewBox="0 0 20 17" fill="none" xmlns="http://www.w3.org/2000/svg">
<path d="M0.808081 0.366489C0.593764 0.366489 0.388226 0.452182 0.236681 0.604717C0.0851368 0.757251 0 0.964132 0 1.17985C0 1.39556 0.0851368 1.60245 0.236681 1.75498C0.388226 1.90751 0.593764 1.99321 0.808081 1.99321H2.60202L4.72242 10.5335C4.90263 11.2574 5.54667 11.7535 6.28768 11.7535H16.3644C17.0941 11.7535 17.7139 11.2655 17.9055 10.5579L20 2.80657H18.3079L16.3636 10.1268H6.28687L4.16727 1.58653C4.07972 1.23616 3.87788 0.925493 3.59408 0.704288C3.31029 0.483084 2.96095 0.364135 2.60202 0.366489H0.808081ZM15.3535 11.7535C14.0242 11.7535 12.9293 12.8556 12.9293 14.1936C12.9293 15.5316 14.0242 16.6337 15.3535 16.6337C16.6828 16.6337 17.7778 15.5316 17.7778 14.1936C17.7778 12.8556 16.6828 11.7535 15.3535 11.7535ZM8.08081 11.7535C6.75152 11.7535 5.65657 12.8556 5.65657 14.1936C5.65657 15.5316 6.75152 16.6337 8.08081 16.6337C9.4101 16.6337 10.5051 15.5316 10.5051 14.1936C10.5051 12.8556 9.4101 11.7535 8.08081 11.7535ZM10.5051 0.366489V4.43328H8.08081L11.3131 7.68672L14.5455 4.43328H12.1212V0.366489H10.5051ZM8.08081 13.3802C8.53657 13.3802 8.88889 13.7349 8.88889 14.1936C8.88889 14.6523 8.53657 15.0069 8.08081 15.0069C7.62505 15.0069 7.27273 14.6523 7.27273 14.1936C7.27273 13.7349 7.62505 13.3802 8.08081 13.3802ZM15.3535 13.3802C15.8093 13.3802 16.1616 13.7349 16.1616 14.1936C16.1616 14.6523 15.8093 15.0069 15.3535 15.0069C14.8978 15.0069 14.5455 14.6523 14.5455 14.1936C14.5455 13.7349 14.8978 13.3802 15.3535 13.3802Z" fill="#F1F1F1"/>
</svg>
