<svg width="22" height="20" viewBox="0 0 22 20" fill="none" xmlns="http://www.w3.org/2000/svg">
<path d="M8.14615 17.7778C8.90554 17.7778 9.52115 17.2182 9.52115 16.5278C9.52115 15.8374 8.90554 15.2778 8.14615 15.2778C7.38676 15.2778 6.77115 15.8374 6.77115 16.5278C6.77115 17.2182 7.38676 17.7778 8.14615 17.7778Z" fill="#F1F1F1"/>
<path d="M16.4999 17.7778C17.2593 17.7778 17.8749 17.2182 17.8749 16.5278C17.8749 15.8374 17.2593 15.2778 16.4999 15.2778C15.7405 15.2778 15.1249 15.8374 15.1249 16.5278C15.1249 17.2182 15.7405 17.7778 16.4999 17.7778Z" fill="#F1F1F1"/>
<path d="M20.2156 2.98338C20.1587 2.91965 20.087 2.86816 20.0057 2.83262C19.9243 2.79708 19.8353 2.77836 19.745 2.77782L7.0217 2.77782L7.41892 3.88893L18.9445 3.88893L17.3128 10.5556H8.14614L5.35336 2.51671C5.32315 2.43141 5.2707 2.35402 5.20046 2.29114C5.13023 2.22826 5.04431 2.18175 4.95003 2.1556L2.44447 1.4556C2.36743 1.43408 2.28648 1.42656 2.20624 1.43348C2.126 1.4404 2.04805 1.46161 1.97683 1.49592C1.833 1.5652 1.72534 1.68359 1.67753 1.82504C1.62971 1.96649 1.64567 2.11941 1.72188 2.25017C1.79809 2.38092 1.92832 2.4788 2.08392 2.52226L4.27781 3.13338L7.08281 11.1889L6.08058 11.9334L6.00114 12.0056C5.75323 12.2653 5.61272 12.5955 5.60379 12.9393C5.59487 13.283 5.7181 13.6189 5.95225 13.8889C6.11882 14.0731 6.33047 14.2192 6.57029 14.3157C6.81011 14.4122 7.07144 14.4563 7.33336 14.4445H17.5328C17.6949 14.4445 17.8503 14.386 17.9649 14.2818C18.0795 14.1776 18.1439 14.0363 18.1439 13.8889C18.1439 13.7416 18.0795 13.6003 17.9649 13.4961C17.8503 13.3919 17.6949 13.3334 17.5328 13.3334H7.23559C7.16521 13.3312 7.09665 13.3125 7.03652 13.2792C6.97639 13.2459 6.92672 13.1991 6.89232 13.1432C6.85792 13.0874 6.83994 13.0244 6.84012 12.9604C6.8403 12.8964 6.85864 12.8335 6.89336 12.7778L8.36614 11.6667H17.8017C17.943 11.6699 18.0811 11.6284 18.1925 11.5494C18.3039 11.4704 18.3818 11.3587 18.4128 11.2334L20.35 3.4556C20.3686 3.37277 20.3662 3.28719 20.3429 3.20536C20.3196 3.12352 20.276 3.0476 20.2156 2.98338Z" fill="#F1F1F1"/>
</svg>
