<svg width="37" height="37" viewBox="0 0 37 37" fill="none" xmlns="http://www.w3.org/2000/svg">
<path d="M18.7868 0C8.76861 0 0.571777 8.19691 0.571777 18.2152C0.571777 28.2316 8.76861 36.4285 18.7868 36.4285C28.8031 36.4285 36.9999 28.2316 36.9999 18.2152C36.9999 8.19691 28.8942 0 18.7868 0ZM27.1641 26.3191C26.8013 26.8642 26.1632 27.0483 25.6144 26.6855C21.3319 24.042 15.9591 23.495 9.58355 24.9517C8.9491 25.1377 8.40216 24.6819 8.21985 24.1331C8.03571 23.495 8.49149 22.9517 9.04026 22.7676C15.9591 21.2179 21.9718 21.8578 26.7065 24.773C27.3446 25.0447 27.4357 25.7721 27.1641 26.3191ZM29.3518 21.3109C28.8942 21.9472 28.0757 22.2206 27.4357 21.7648C22.5187 18.7639 15.053 17.8487 9.31555 19.6719C8.58994 19.856 7.76588 19.4895 7.58539 18.7639C7.40126 18.031 7.76771 17.2106 8.49514 17.0283C15.1423 15.0265 23.341 16.0292 28.9854 19.4914C29.5323 19.763 29.8058 20.6728 29.3518 21.3109ZM29.5323 16.2079C23.7038 12.7493 13.9591 12.3847 8.40216 14.1185C7.97957 14.2403 7.5263 14.1946 7.13654 13.9909C6.74678 13.7872 6.45047 13.4411 6.3092 13.0246C6.18526 12.6015 6.22971 12.1469 6.43324 11.7558C6.63677 11.3647 6.98362 11.0674 7.40126 10.9262C13.8679 9.01369 24.5242 9.37649 31.2643 13.3893C32.0829 13.8432 32.3564 14.9371 31.9006 15.7557C31.4448 16.3938 30.3528 16.6637 29.5323 16.2079Z" fill="#935351"/>
</svg>
