<svg width="37" height="37" viewBox="0 0 37 37" fill="none" xmlns="http://www.w3.org/2000/svg">
<path d="M18.7858 0.571533C8.72745 0.571533 0.571777 8.72729 0.571777 18.7858C0.571777 28.8443 8.72745 37 18.7858 37C28.8442 37 36.9999 28.8443 36.9999 18.7858C36.9999 8.72729 28.8442 0.571533 18.7858 0.571533ZM27.5392 14.3013C27.5514 14.4924 27.5514 14.6916 27.5514 14.8868C27.5514 20.8552 23.006 27.7303 14.6999 27.7303C12.1385 27.7303 9.76419 26.9863 7.7639 25.7056C8.1298 25.7462 8.47945 25.7625 8.85349 25.7625C10.9676 25.7625 12.911 25.0469 14.46 23.8354C12.476 23.7947 10.8091 22.4937 10.2399 20.7048C10.9351 20.8064 11.5612 20.8064 12.2768 20.6235C11.2552 20.4159 10.3369 19.8611 9.67807 19.0532C9.01919 18.2454 8.66031 17.2343 8.6624 16.1919V16.135C9.26005 16.4724 9.96341 16.6798 10.6993 16.7082C10.0807 16.2959 9.57334 15.7374 9.22229 15.0821C8.87123 14.4268 8.6873 13.6949 8.6868 12.9515C8.6868 12.1099 8.90634 11.3415 9.30071 10.6747C10.4346 12.0706 11.8496 13.2123 13.4536 14.0255C15.0576 14.8388 16.8149 15.3054 18.611 15.395C17.9727 12.3254 20.2657 9.84128 23.0222 9.84128C24.3232 9.84128 25.4942 10.3861 26.3195 11.2643C27.34 11.0732 28.3157 10.691 29.1858 10.1787C28.8483 11.2236 28.1409 12.1059 27.2017 12.6629C28.1124 12.5653 28.9906 12.3132 29.8037 11.9595C29.1898 12.8621 28.4214 13.663 27.5392 14.3013Z" fill="#935351"/>
</svg>
