<svg width="1760" height="978" viewBox="0 0 1760 978" fill="none" xmlns="http://www.w3.org/2000/svg">
<g clip-path="url(#clip0)">
<path d="M851.079 517.328L761.928 443.453L659.403 537.068H879.385L851.079 517.328Z" fill="#FFA16C"/>
<path d="M670.541 526.893L761.921 443.453L728.267 537.068H659.397L670.541 526.893Z" fill="#935351"/>
<path d="M507.598 540.596L635.502 423.806L769.646 554.839H492L507.598 540.596Z" fill="#FFA16C"/>
<path d="M507.598 540.596L635.502 423.807L588.396 554.839H492L507.598 540.596Z" fill="#935351"/>
<path d="M1487.98 556.215L1092.68 210L732.339 556.215H1487.98Z" fill="#FFA16C"/>
<path d="M732.353 556.215L1092.69 210L968.726 556.215H732.353Z" fill="#935351"/>
<path d="M-98.0001 415.168C-98.0001 415.168 210.29 437.627 419.855 496.994C683.08 571.562 864.277 513.682 864.277 513.682L832.182 726.962L-98.0001 665.732V568.18V415.168Z" fill="#B26969"/>
<path d="M1760 276C1760 276 1227 313.5 847 488.5C631.145 587.907 158.78 637.578 -69.0817 538.564C-69.0817 601.285 -69.0817 632.353 -69.0817 632.353V729.073V978.066H633.199H1760V538.564V276Z" fill="#FC8C54"/>
<path d="M188.835 425.808C188.835 425.808 179.127 434.226 181.628 427.728C182.363 425.956 182.804 424.627 183.393 423.446C183.687 422.707 182.804 422.117 182.216 422.707C179.274 425.808 175.45 429.5 178.539 423.15L182.657 415.028C182.804 414.585 182.363 414.142 182.069 414.437C179.862 415.619 175.891 417.686 179.421 413.699C182.216 410.598 184.275 408.53 185.599 407.349C185.746 407.201 185.599 406.906 185.305 406.906C181.039 408.973 170.007 413.551 179.421 402.328C190.894 388.594 173.096 398.488 182.216 390.957C195.454 380.029 192.512 381.358 192.512 381.358C192.512 381.358 186.629 382.835 185.305 381.801C183.981 380.62 186.923 375.894 188.688 374.27C189.571 373.384 191.041 372.941 192.071 372.793C193.101 372.645 194.13 371.907 194.425 370.873C195.454 368.51 196.631 364.966 193.689 367.034C189.718 369.987 188.1 367.92 194.425 360.24C195.16 359.502 195.16 358.321 194.572 357.435L192.071 353.595C192.071 353.595 190.453 353.89 195.601 347.688C200.75 341.486 203.544 330.853 203.544 325.537C203.544 320.22 205.457 305.157 226.344 286.403C247.231 267.648 242.23 266.762 259.293 258.64C274.885 251.256 300.332 240.476 312.541 220.244C315.336 215.666 318.719 211.383 322.69 207.987C331.957 200.16 348.726 187.46 365.936 182.587C391.53 175.351 407.416 183.473 427.862 204.738C448.308 226.003 466.254 232.649 500.379 238.851C534.505 245.054 544.655 280.791 553.921 285.812C561.864 290.095 575.25 310.178 598.785 304.862C605.845 303.238 612.023 298.955 615.995 292.9C625.115 279.167 643.354 249.927 639.53 244.167C634.529 236.636 641.442 232.206 643.501 230.138C645.414 228.218 645.267 217.881 651.003 210.793C652.474 209.021 652.474 209.021 652.474 209.021C652.474 209.021 648.208 191.3 651.592 190.414C654.975 189.527 660.27 191.743 663.506 193.81C663.506 193.81 676.745 184.063 698.367 191.152C719.99 198.24 735.582 197.502 740.289 197.059C745.143 196.616 761.029 203.409 762.941 209.316C764.854 215.223 762.941 212.713 762.941 212.713C762.941 212.713 770.443 217.881 769.561 222.016C768.825 226.151 766.619 227.185 766.619 227.185C766.619 227.185 771.179 232.058 769.708 233.83C768.237 235.602 760.294 237.522 755.587 237.227C750.733 236.784 742.201 236.488 739.259 236.045C736.317 235.602 720.284 241.657 717.342 240.919C714.401 240.18 701.309 250.665 698.073 253.914C694.837 257.163 694.396 261.002 694.396 261.002C694.396 261.002 691.013 290.981 678.068 304.714C665.124 318.448 654.239 349.756 626.291 363.637C600.55 376.337 561.717 376.337 544.655 375.746C542.301 375.599 539.948 376.632 538.33 378.257C536.564 380.029 534.064 382.392 531.416 383.869C529.798 384.902 528.621 386.379 528.18 388.299C526.856 394.206 523.767 406.315 521.855 410.155C519.207 415.323 519.943 485.174 518.178 493.739C518.178 493.739 523.326 509.393 517.736 517.22C517.736 517.22 520.09 562.261 524.356 570.383C524.944 571.417 525.385 572.303 525.532 573.484C527.003 579.834 531.857 598.737 533.917 598.737C535.093 598.737 535.829 599.327 536.27 600.066C537.006 601.395 538.182 602.429 539.653 602.872C544.213 604.348 553.774 608.04 557.158 614.833C559.805 620.002 559.805 620.002 559.805 620.002C559.805 620.002 534.211 622.955 522.296 621.036C518.031 620.445 515.824 622.365 511.853 603.167C508.175 585.15 500.674 555.763 500.379 549.118C499.938 542.472 494.054 531.249 494.054 528.295C494.054 525.342 494.496 522.684 494.496 522.684C494.496 522.684 491.848 519.73 491.554 517.515C491.112 515.3 488.612 468.634 488.906 463.761C489.347 458.888 483.022 412.222 486.258 411.189C486.258 411.189 458.458 467.158 456.104 480.891C453.898 494.625 447.867 512.937 446.102 514.857C444.19 516.777 438.747 523.865 437.57 525.342C434.923 528.443 436.099 527.262 433.452 530.953C430.804 534.645 430.069 597.703 432.275 600.656C432.716 601.247 433.01 601.69 433.158 602.281C434.04 605.087 435.952 607.597 438.747 608.779C446.249 612.175 457.575 618.082 453.751 621.774C448.308 627.09 449.338 625.318 449.338 625.318C448.161 626.352 447.279 627.09 445.513 627.09H435.364C435.364 627.09 406.681 626.647 405.651 624.137C404.769 621.922 405.504 612.027 408.593 608.188C409.917 606.416 410.505 604.201 410.211 601.985C409.476 596.078 408.74 584.56 409.77 568.315C411.535 542.915 413.447 529.92 414.918 526.228C416.389 522.536 413.741 497.431 415.653 496.693C417.566 495.954 437.57 422.117 441.983 415.323C446.396 408.678 442.719 408.235 442.719 408.235C442.719 408.235 404.033 411.927 398.885 409.416C398.885 409.416 346.078 417.243 302.98 383.721L300.038 381.506C300.038 381.506 296.066 387.856 291.801 390.219C290.624 390.809 289.888 391.843 289.594 393.172C287.976 400.851 281.945 426.547 268.56 439.247C267.383 440.428 266.648 441.905 266.353 443.677C265.618 449.584 263.559 463.909 257.381 470.702C256.792 471.293 256.498 472.031 256.498 472.917C255.91 480.596 252.968 517.663 256.792 525.49C257.087 526.228 257.381 526.966 257.528 527.705C258.705 533.759 263.559 557.83 271.355 568.463C280.327 580.72 282.092 587.809 285.034 588.547C286.505 588.842 286.652 589.876 286.505 590.762C286.358 591.944 286.947 593.125 288.123 593.568L294.301 595.931C294.301 595.931 306.51 595.931 308.422 604.496C308.422 604.496 315.924 609.369 312.541 610.846C309.158 612.323 277.974 613.8 276.797 612.323C275.62 610.846 244.878 555.172 242.23 543.358C242.23 543.358 226.932 513.085 223.99 512.789C221.049 512.346 231.786 442.348 229.874 439.985C227.962 437.77 223.549 439.985 221.637 440.724C220.166 441.314 207.663 457.263 206.781 459.774C205.751 462.432 180.451 510.574 178.98 526.966C177.509 543.358 174.126 586.332 176.332 592.682C177.362 595.488 178.097 598.589 178.539 600.952C178.833 602.133 179.421 603.167 180.451 603.758C186.629 607.597 183.687 607.745 187.07 609.812C194.278 614.39 196.043 611.732 197.514 613.947C198.985 616.162 205.31 617.934 206.045 621.922C206.781 626.057 211.34 625.761 200.455 626.943C198.543 627.09 200.455 626.943 194.13 627.533L193.248 627.681C193.248 627.681 161.034 628.567 162.505 627.386C165.3 625.171 156.18 637.132 157.651 588.547C159.122 539.962 159.563 503.929 155.445 500.828C151.326 497.726 177.068 443.382 180.745 441.462C184.864 439.395 188.835 425.808 188.835 425.808Z" fill="#FC8C54"/>
</g>
<defs>
<clipPath id="clip0">
<rect width="1760" height="978" fill="white"/>
</clipPath>
</defs>
</svg>
