<svg width="2113" height="1061" viewBox="0 0 2113 1061" fill="none" xmlns="http://www.w3.org/2000/svg">
<g clip-path="url(#clip0)">
<path d="M949.079 504.328L859.928 430.453L757.403 524.068H977.385L949.079 504.328Z" fill="#FFA16C"/>
<path d="M768.541 513.893L859.921 430.453L826.267 524.068H757.397L768.541 513.893Z" fill="#935351"/>
<path d="M605.598 527.596L733.502 410.806L867.646 541.839H590L605.598 527.596Z" fill="#FFA16C"/>
<path d="M605.598 527.596L733.502 410.806L686.396 541.839H590L605.598 527.596Z" fill="#935351"/>
<path d="M1585.98 543.215L1190.68 197L830.339 543.215H1585.98Z" fill="#FFA16C"/>
<path d="M830.354 543.215L1190.69 197L1066.73 543.215H830.354Z" fill="#935351"/>
<path d="M-0.000115256 402.168C-0.000115256 402.168 308.29 424.627 517.855 483.994C781.08 558.562 962.277 500.682 962.277 500.682L930.182 713.962L-0.000115256 652.732V555.18V402.168Z" fill="#B26969"/>
<path d="M191.984 433.826C191.984 433.826 183.381 441.285 185.597 435.527C186.248 433.957 186.64 432.779 187.161 431.732C187.422 431.078 186.64 430.554 186.118 431.078C183.511 433.826 180.122 437.097 182.859 431.47L186.509 424.273C186.64 423.88 186.248 423.488 185.988 423.749C184.033 424.796 180.513 426.628 183.641 423.095C186.118 420.347 187.943 418.515 189.116 417.468C189.247 417.337 189.116 417.075 188.856 417.075C185.075 418.907 175.299 422.964 183.641 413.018C193.809 400.848 178.036 409.616 186.118 402.942C197.85 393.258 195.243 394.436 195.243 394.436C195.243 394.436 190.029 395.744 188.856 394.828C187.682 393.781 190.289 389.594 191.854 388.154C192.636 387.369 193.939 386.976 194.852 386.846C195.764 386.715 196.677 386.06 196.937 385.144C197.85 383.05 198.893 379.91 196.286 381.742C192.766 384.359 191.332 382.527 196.937 375.722C197.589 375.068 197.589 374.021 197.068 373.236L194.852 369.833C194.852 369.833 193.418 370.095 197.98 364.599C202.542 359.102 205.019 349.68 205.019 344.969C205.019 340.258 206.714 326.91 225.224 310.29C243.733 293.67 239.301 292.885 254.422 285.687C268.239 279.144 290.79 269.591 301.609 251.663C304.086 247.606 307.084 243.811 310.604 240.801C318.816 233.865 333.676 222.611 348.927 218.292C371.608 211.88 385.686 219.077 403.805 237.922C421.924 256.766 437.826 262.655 468.068 268.152C498.309 273.648 507.304 305.317 515.516 309.766C522.555 313.561 534.417 331.359 555.273 326.648C561.53 325.208 567.004 321.413 570.524 316.048C578.606 303.878 594.769 277.966 591.38 272.863C586.948 266.189 593.075 262.263 594.9 260.431C596.594 258.729 596.464 249.569 601.548 243.287C602.851 241.717 602.851 241.717 602.851 241.717C602.851 241.717 599.071 226.013 602.069 225.228C605.067 224.443 609.76 226.406 612.627 228.238C612.627 228.238 624.359 219.601 643.521 225.882C662.682 232.164 676.5 231.51 680.671 231.117C684.972 230.724 699.05 236.744 700.745 241.979C702.439 247.213 700.745 244.989 700.745 244.989C700.745 244.989 707.393 249.569 706.611 253.233C705.959 256.897 704.004 257.813 704.004 257.813C704.004 257.813 708.045 262.132 706.741 263.702C705.438 265.273 698.399 266.974 694.227 266.712C689.926 266.319 682.365 266.058 679.758 265.665C677.151 265.273 662.943 270.638 660.336 269.984C657.729 269.329 646.128 278.621 643.26 281.5C640.392 284.379 640.001 287.781 640.001 287.781C640.001 287.781 637.003 314.347 625.532 326.517C614.061 338.687 604.415 366.431 579.649 378.732C556.837 389.986 522.424 389.986 507.304 389.463C505.218 389.332 503.132 390.248 501.699 391.687C500.134 393.258 497.918 395.352 495.572 396.66C494.138 397.576 493.095 398.885 492.704 400.586C491.531 405.821 488.794 416.552 487.099 419.954C484.753 424.534 485.405 486.433 483.84 494.023C483.84 494.023 488.403 507.895 483.449 514.831C483.449 514.831 485.535 554.744 489.315 561.942C489.837 562.858 490.228 563.643 490.358 564.69C491.661 570.317 495.963 587.068 497.788 587.068C498.831 587.068 499.483 587.591 499.874 588.246C500.525 589.423 501.568 590.34 502.872 590.732C506.913 592.041 515.385 595.312 518.383 601.332C520.73 605.912 520.73 605.912 520.73 605.912C520.73 605.912 498.049 608.53 487.49 606.828C483.71 606.305 481.755 608.006 478.235 590.994C474.976 575.028 468.329 548.986 468.068 543.098C467.677 537.209 462.463 527.263 462.463 524.646C462.463 522.028 462.854 519.673 462.854 519.673C462.854 519.673 460.507 517.055 460.247 515.093C459.856 513.13 457.64 471.776 457.9 467.458C458.292 463.139 452.686 421.786 455.554 420.87C455.554 420.87 430.918 470.468 428.832 482.638C426.877 494.809 421.532 511.036 419.968 512.737C418.274 514.438 413.451 520.72 412.408 522.028C410.062 524.776 411.104 523.73 408.758 527.001C406.412 530.273 405.76 586.152 407.715 588.769C408.106 589.293 408.367 589.685 408.497 590.209C409.279 592.695 410.974 594.92 413.451 595.967C420.099 598.977 430.136 604.211 426.747 607.483C421.924 612.194 422.836 610.624 422.836 610.624C421.793 611.54 421.011 612.194 419.447 612.194H410.453C410.453 612.194 385.034 611.801 384.122 609.577C383.34 607.614 383.991 598.846 386.729 595.443C387.902 593.873 388.423 591.91 388.163 589.947C387.511 584.712 386.859 574.505 387.772 560.11C389.336 537.601 391.03 526.085 392.334 522.814C393.637 519.542 391.291 497.295 392.986 496.641C394.68 495.986 412.408 430.554 416.318 424.534C420.229 418.646 416.97 418.253 416.97 418.253C416.97 418.253 382.688 421.525 378.126 419.3C378.126 419.3 331.329 426.236 293.136 396.529L290.529 394.566C290.529 394.566 287.01 400.194 283.23 402.287C282.187 402.811 281.535 403.727 281.275 404.905C279.841 411.71 274.496 434.48 262.634 445.734C261.592 446.781 260.94 448.09 260.679 449.66C260.027 454.895 258.202 467.589 252.728 473.609C252.206 474.132 251.946 474.786 251.946 475.571C251.424 482.376 248.817 515.223 252.206 522.159C252.467 522.814 252.728 523.468 252.858 524.122C253.901 529.488 258.202 550.819 265.111 560.241C273.062 571.102 274.627 577.384 277.234 578.038C278.537 578.3 278.668 579.216 278.537 580.001C278.407 581.048 278.928 582.095 279.971 582.488L285.446 584.582C285.446 584.582 296.265 584.582 297.96 592.172C297.96 592.172 304.607 596.49 301.609 597.799C298.611 599.107 270.977 600.416 269.934 599.107C268.891 597.799 241.648 548.463 239.301 537.994C239.301 537.994 225.745 511.167 223.138 510.905C220.531 510.512 230.047 448.483 228.352 446.389C226.657 444.426 222.747 446.389 221.052 447.043C219.749 447.567 208.669 461.7 207.887 463.925C206.974 466.28 184.554 508.942 183.25 523.468C181.947 537.994 178.949 576.075 180.904 581.703C181.817 584.189 182.468 586.937 182.859 589.031C183.12 590.078 183.641 590.994 184.554 591.517C190.029 594.92 187.422 595.051 190.42 596.883C196.807 600.94 198.371 598.584 199.675 600.547C200.978 602.51 206.583 604.08 207.235 607.614C207.887 611.278 211.928 611.016 202.282 612.063C200.587 612.194 202.282 612.063 196.677 612.586L195.894 612.717C195.894 612.717 167.348 613.503 168.651 612.456C171.128 610.493 163.046 621.093 164.349 578.038C165.653 534.984 166.044 503.053 162.394 500.305C158.744 497.557 181.556 449.399 184.815 447.697C188.464 445.865 191.984 433.826 191.984 433.826Z" fill="#FC8C54"/>
<path d="M2113 244C2113 244 1497.27 281.496 1058.28 456.48C808.919 555.878 263.231 605.544 0 506.539C0 569.255 0 600.319 0 600.319V697.03V1111.5H821.5H2113V506.539V244Z" fill="#FC8C54"/>
</g>
<defs>
<clipPath id="clip0">
<rect width="2113" height="1061" fill="white"/>
</clipPath>
</defs>
</svg>
