<svg width="3022" height="1423" viewBox="0 0 3022 1423" fill="none" xmlns="http://www.w3.org/2000/svg">
<path d="M1844.44 749.053L1656.38 593.223L1440.12 790.694H1904.15L1844.44 749.053Z" fill="#FFA16C"/>
<path d="M1463.61 769.23L1656.37 593.223L1585.38 790.694H1440.11L1463.61 769.23Z" fill="#935351"/>
<path d="M1119.9 802.354L1389.7 556L1672.66 832.397H1087L1119.9 802.354Z" fill="#FFA16C"/>
<path d="M1119.9 802.354L1389.7 556L1290.34 832.397H1087L1119.9 802.354Z" fill="#935351"/>
<path d="M3187.91 835.302L2354.07 105L1593.97 835.302H3187.91Z" fill="#FFA16C"/>
<path d="M1594 835.302L2354.1 105L2092.6 835.302H1594Z" fill="#935351"/>
<path d="M-31.0175 584.654C-31.0175 584.654 619.286 632.029 1061.34 757.256C1616.58 914.55 1998.8 792.458 1998.8 792.458L1931.1 1242.35L-31.0175 1113.19V907.416V584.654Z" fill="#B26969"/>
<path d="M3074.81 469.687C3074.81 469.687 2225.96 446.429 1460.6 817.837C1132.23 977.183 459.863 1053.2 -20.7844 844.342C-20.7844 976.646 -20.7844 1042.18 -20.7844 1042.18V1246.2V1767H3074.81L3074.81 778.808V469.687Z" fill="#FC8C54"/>
<path d="M253.123 567.335C253.123 567.335 230.708 586.763 236.481 571.766C238.18 567.676 239.198 564.608 240.557 561.881C241.236 560.177 239.198 558.814 237.84 560.177C231.047 567.335 222.217 575.856 229.349 561.2L238.859 542.453C239.198 541.431 238.18 540.408 237.5 541.09C232.406 543.817 223.236 548.588 231.387 539.386C237.84 532.228 242.595 527.456 245.651 524.73C245.991 524.389 245.651 523.707 244.972 523.707C235.123 528.479 209.651 539.045 231.387 513.141C257.878 481.443 216.783 504.279 237.84 486.896C268.407 461.674 261.614 464.742 261.614 464.742C261.614 464.742 248.029 468.15 244.972 465.764C241.915 463.037 248.708 452.131 252.784 448.381C254.821 446.336 258.218 445.314 260.595 444.973C262.973 444.632 265.35 442.928 266.029 440.542C268.407 435.089 271.124 426.908 264.331 431.68C255.161 438.497 251.425 433.725 266.029 416.001C267.727 414.297 267.727 411.571 266.369 409.526L260.595 400.664C260.595 400.664 256.859 401.345 268.746 387.03C280.633 372.715 287.086 348.174 287.086 335.904C287.086 323.634 291.502 288.868 339.729 245.581C387.957 202.294 376.409 200.249 415.806 181.503C451.807 164.461 510.563 139.58 538.753 92.8846C545.206 82.3185 553.017 72.4341 562.187 64.5948C583.584 46.5303 622.302 17.218 662.039 5.97023C721.134 -10.731 757.815 8.01527 805.023 57.0963C852.232 106.177 893.667 121.515 972.461 135.831C1051.26 150.146 1074.69 232.629 1096.09 244.218C1114.43 254.102 1145.33 300.457 1199.67 288.186C1215.98 284.437 1230.24 274.553 1239.41 260.578C1260.47 228.88 1302.58 161.394 1293.75 148.101C1282.2 130.718 1298.17 120.493 1302.92 115.721C1307.34 111.29 1307 87.4311 1320.24 71.0708C1323.64 66.9807 1323.64 66.9807 1323.64 66.9807C1323.64 66.9807 1313.79 26.0798 1321.6 24.0348C1329.41 21.9897 1341.64 27.1023 1349.11 31.8741C1349.11 31.8741 1379.68 9.37863 1429.6 25.739C1479.53 42.0993 1515.53 40.3951 1526.4 39.3726C1537.61 38.3501 1574.29 54.0287 1578.7 67.6624C1583.12 81.296 1578.7 75.5017 1578.7 75.5017C1578.7 75.5017 1596.02 87.4311 1593.99 96.9747C1592.29 106.518 1587.19 108.904 1587.19 108.904C1587.19 108.904 1597.72 120.152 1594.33 124.242C1590.93 128.332 1572.59 132.763 1561.72 132.081C1550.51 131.059 1530.81 130.377 1524.02 129.355C1517.23 128.332 1480.21 142.306 1473.42 140.602C1466.62 138.898 1436.4 163.098 1428.93 170.596C1421.45 178.095 1420.43 186.957 1420.43 186.957C1420.43 186.957 1412.62 256.147 1382.74 287.845C1352.85 319.544 1327.72 391.802 1263.19 423.841C1203.75 453.153 1114.09 453.153 1074.69 451.79C1069.26 451.449 1063.82 453.835 1060.09 457.584C1056.01 461.674 1050.24 467.128 1044.12 470.536C1040.39 472.922 1037.67 476.33 1036.65 480.761C1033.59 494.395 1026.46 522.344 1022.05 531.206C1015.93 543.135 1017.63 704.353 1013.56 724.121C1013.56 724.121 1025.44 760.25 1012.54 778.315C1012.54 778.315 1017.97 882.271 1027.82 901.018C1029.18 903.404 1030.2 905.449 1030.54 908.175C1033.93 922.831 1045.14 966.459 1049.9 966.459C1052.61 966.459 1054.31 967.822 1055.33 969.527C1057.03 972.594 1059.75 974.98 1063.14 976.003C1073.67 979.411 1095.75 987.932 1103.56 1003.61C1109.67 1015.54 1109.67 1015.54 1109.67 1015.54C1109.67 1015.54 1050.58 1022.36 1023.07 1017.93C1013.22 1016.56 1008.12 1020.99 998.952 976.684C990.462 935.102 973.141 867.274 972.461 851.937C971.442 836.599 957.857 810.695 957.857 803.878C957.857 797.061 958.876 790.926 958.876 790.926C958.876 790.926 952.763 784.109 952.083 778.997C951.065 773.884 945.291 666.178 945.97 654.931C946.989 643.683 932.385 535.977 939.857 533.591C939.857 533.591 875.667 662.77 870.232 694.468C865.138 726.166 851.213 768.431 847.138 772.862C842.722 777.293 830.156 793.653 827.439 797.061C821.326 804.219 824.043 801.492 817.929 810.013C811.816 818.534 810.118 964.073 815.212 970.89C816.231 972.253 816.91 973.276 817.25 974.639C819.288 981.115 823.703 986.909 830.156 989.636C847.477 997.476 873.629 1011.11 864.798 1019.63C852.232 1031.9 854.609 1027.81 854.609 1027.81C851.892 1030.2 849.855 1031.9 845.779 1031.9H822.344C822.344 1031.9 756.116 1030.88 753.739 1025.08C751.701 1019.97 753.399 997.135 760.532 988.273C763.588 984.183 764.947 979.07 764.268 973.958C762.569 960.324 760.871 933.738 763.249 896.246C767.324 837.621 771.739 807.627 775.136 799.106C778.532 790.585 772.419 732.642 776.834 730.938C781.249 729.234 827.439 558.814 837.628 543.135C847.817 527.797 839.326 526.775 839.326 526.775C839.326 526.775 750.003 535.296 738.116 529.501C738.116 529.501 616.189 547.566 516.677 470.195L509.884 465.083C509.884 465.083 500.714 479.739 490.865 485.192C488.148 486.555 486.45 488.941 485.77 492.009C482.034 509.733 468.11 569.039 437.203 598.351C434.486 601.078 432.788 604.486 432.109 608.576C430.411 622.21 425.656 655.272 411.391 670.95C410.033 672.314 409.353 674.018 409.353 676.063C407.995 693.787 401.202 779.338 410.033 797.402C410.712 799.106 411.391 800.81 411.731 802.515C414.448 816.489 425.656 872.046 443.656 896.587C464.374 924.877 468.449 941.237 475.242 942.941C478.638 943.623 478.978 946.009 478.638 948.054C478.298 950.78 479.657 953.507 482.374 954.53L496.639 959.983C496.639 959.983 524.828 959.983 529.243 979.752C529.243 979.752 546.564 991 538.753 994.408C530.941 997.816 458.94 1001.22 456.223 997.816C453.505 994.408 382.523 865.911 376.409 838.644C376.409 838.644 341.088 768.771 334.295 768.09C327.502 767.067 352.295 605.509 347.88 600.055C343.465 594.943 333.276 600.055 328.861 601.76C325.465 603.123 296.596 639.934 294.558 645.728C292.181 651.863 233.764 762.977 230.368 800.81C226.972 838.644 219.16 937.828 224.255 952.485C226.632 958.961 228.33 966.118 229.349 971.572C230.028 974.298 231.387 976.684 233.764 978.048C248.029 986.91 241.236 987.25 249.048 992.022C265.69 1002.59 269.765 996.453 273.162 1001.57C276.558 1006.68 291.162 1010.77 292.86 1019.97C294.558 1029.51 305.087 1028.83 279.954 1031.56C275.539 1031.9 279.954 1031.56 265.35 1032.92L263.312 1033.26C263.312 1033.26 188.933 1035.31 192.329 1032.58C198.782 1027.47 177.725 1055.08 181.122 942.941C184.518 830.805 185.537 747.639 176.027 740.482C166.517 733.324 225.953 607.895 234.444 603.464C243.953 598.692 253.123 567.335 253.123 567.335Z" fill="#FC8C54"/>
</svg>
