<svg width="45" height="30" viewBox="0 0 45 30" xmlns="http://www.w3.org/2000/svg">
<path d="M7.83389 2.61182V4.99988C5.29236 4.0745 2.97509 5.73122 3.49834 7.53719C3.97675 9.19391 6.18937 10.4476 8.5814 7.08943L9.32891 8.73122C7.08638 11.0745 4.57475 11.6864 2.78073 10.6267C1.68937 9.99988 1.06146 8.82077 1.00166 7.56704C0.882062 5.26853 2.27243 3.61182 6.33887 3.20883C6.78738 3.16406 7.38539 2.91032 7.83389 2.61182Z" fill="#FC8C54"/>
<path d="M18.1494 7.98432C17.1029 5.62611 16.5797 3.31268 17.4019 1.11865C15.0697 1.37238 12.7674 1.82014 10.5249 2.46194C10.7043 2.85 10.9734 3.22313 11.2724 3.50671L12.6179 3.05895C11.4069 4.93955 10.5548 7.16343 9.77734 9.47686C10.8239 9.25298 11.8405 9.0291 12.6179 8.87985C12.5431 8.77537 12.4833 8.67089 12.4086 8.56641C12.3488 8.47686 12.3338 8.37238 12.3637 8.28283C12.6478 7.22313 12.9019 6.46193 13.0664 6.50671C13.7541 6.43208 14.5016 6.32761 15.3089 6.2082C15.3687 6.95447 15.0548 7.65596 15.0099 8.29776L18.1494 7.98432ZM15.0099 4.74552C15.0099 4.80522 14.9651 4.84999 14.9053 4.86492C14.4717 4.95447 14.0531 4.99925 13.6345 4.99925C13.5747 4.99925 13.5298 4.93955 13.5597 4.87985C13.9185 4.05895 14.382 3.37238 14.9352 2.82014C14.9651 2.79029 15.0099 2.80522 15.0099 2.85C15.0697 3.49179 15.0697 4.11865 15.0099 4.74552Z" fill="#FC8C54"/>
<path d="M19.196 7.83591C19.3455 7.58218 19.495 7.34337 19.6445 6.94039C19.809 6.49263 19.8837 4.19412 19.6744 2.2389C19.6595 2.08964 19.5997 1.95531 19.495 1.85084C19.3007 1.65681 19.0615 1.40307 18.7625 1.13442C20.2874 1.04487 21.8721 1.01502 23.0681 1.13442C23.083 1.13442 23.098 1.14934 23.083 1.16427C23.0382 1.32845 23.0531 1.46278 23.098 1.58218C23.3073 2.2986 23.8007 2.88069 24.4435 3.37322C25.1312 2.83591 25.6694 2.28367 25.789 1.73143C25.8638 1.56725 25.8488 1.38815 25.804 1.20905C25.789 1.17919 25.8189 1.13442 25.8488 1.13442C26.7608 1.02994 28.1063 1.28367 29.5116 1.5971C29.3173 1.73143 29.093 1.91054 28.9136 2.19412C28.0914 4.02994 28.3156 5.79114 28.4502 7.56725C28.4651 7.79114 28.51 8.02994 28.5997 8.2389C28.6146 8.26875 28.5847 8.28367 28.5548 8.28367C27.8073 8.08964 26.6711 7.97024 25.4751 7.85084C25.6844 7.59711 25.8787 7.3583 25.9236 7.10457C26.1478 6.16427 26.2824 5.10457 26.3721 3.97024C25.4601 4.89561 24.593 5.74636 23.8306 6.3583C23.0232 5.55233 22.2757 4.70158 21.588 3.82099C21.5133 4.89561 21.5133 5.89561 21.588 6.80606C21.7076 7.16427 21.9169 7.56725 22.186 8.00009C21.2442 7.88069 20.0332 7.82099 19.196 7.83591Z" fill="#FC8C54"/>
<path d="M38.1828 3.35836L37.9436 3.28373C37.7941 3.23895 37.6595 3.17925 37.525 3.10463C34.5499 1.49269 32.1429 1.16433 30.6479 2.86582C29.7509 3.89567 29.5117 5.31358 29.8705 6.62701C30.5433 8.98522 33.6828 10.0897 36.8223 8.59716L36.3738 6.95537C34.7592 8.11955 32.5167 7.82104 32.2027 6.01507C32.1878 5.95537 32.2476 5.9106 32.2924 5.92552L35.3273 6.35836C35.3722 5.95537 35.432 5.50761 35.4768 5.01507L32.5615 4.59716C32.4569 4.58224 32.3971 4.46284 32.4569 4.37328C33.3838 3.07478 35.118 2.88075 36.9718 5.01507L38.1828 3.35836Z" fill="#FC8C54"/>
<path d="M39.3786 3.35815C39.4833 3.52233 39.5281 3.70144 39.5431 3.88054C39.573 4.17905 39.5132 4.46263 39.4235 4.74621L38.0929 8.73129C37.9584 9.11935 37.7341 9.49248 37.4501 9.77607L42.9816 11.7164L44.1777 10.0746C43.6843 10.1791 43.176 10.1492 42.6976 9.99995L40.6345 9.35816C40.6046 9.34323 40.5896 9.31338 40.5896 9.28353C40.9335 7.98502 41.3222 6.82084 41.7408 5.85069C41.965 5.3283 42.3388 4.88054 42.8022 4.56711H42.8172L39.3786 3.35815Z" fill="#FC8C54"/>
<path d="M17.2675 15.2985C17.2675 15.2985 17.746 15.2089 17.8656 14.8507C17.8805 14.8209 17.8955 14.791 17.9104 14.7612C17.8656 14.7313 17.7908 14.6269 17.6413 14.7761C17.4918 14.9254 17.4918 14.9254 17.3423 14.9254C17.3423 14.9254 17.1928 14.7761 17.4918 14.6269C17.6563 14.5373 17.8805 14.5522 18.03 14.5821C18.0599 14.4925 17.9702 14.4179 17.4619 14.403C17.3124 14.403 17.1479 14.3731 16.9984 14.3433L16.8938 14.3283C16.7293 14.2985 16.4602 14.2239 16.3107 14.1492C16.221 14.1045 15.3838 14.0298 15.1596 14.1045C15.0549 14.1343 14.9204 14.1642 14.8157 14.1642C14.741 14.1791 14.6513 14.1791 14.5765 14.1642C14.5018 14.1492 14.3672 14.1492 14.2626 14.2537C14.1878 14.3283 14.1131 14.403 14.1131 14.403H14.3224C14.3822 14.403 14.4121 14.4477 14.4121 14.4925L14.3523 14.6269C14.3672 14.6269 14.0084 14.5522 13.829 14.7015C13.6795 14.8209 13.6795 14.9701 13.6795 15C13.6795 15 13.6795 15 13.6795 15.0746H14.9503V15.2239H13.7244C13.7094 15.2985 13.9038 15.5224 14.2028 15.5224C14.2925 15.4776 14.2626 15.5075 14.2775 15.4478H14.427C14.5018 15.4478 14.5466 15.4478 14.5765 15.4478C14.5765 15.4478 14.8307 15.7015 15.2194 15.7463C15.2792 15.7463 15.339 15.791 15.3539 15.8507C15.3988 16 15.5034 16.1642 15.623 16.3433C15.623 16.3433 15.623 18.5821 16.3705 19.4776C17.1031 20.3582 17.8357 21.5373 20.0184 21.1343C20.0782 21.1194 20.123 21.1492 20.138 21.2089C20.5416 22.0448 20.8107 23.0298 20.9901 24.1194C21.0051 24.2089 20.9901 24.2836 20.9752 24.3731C20.9154 24.597 20.7958 25.0746 20.9752 25.5075C21.0051 25.5672 21.02 25.6269 21.02 25.7015V26.5224C21.02 27.0895 20.9303 27.6716 20.7509 28.2089C20.736 28.2537 20.7061 28.2836 20.6612 28.3134C20.4519 28.388 19.8539 28.6418 19.9885 28.8806H20.2875V29.0298C20.2875 29.0298 21.4835 29.1791 21.4835 28.8806C21.4835 28.5821 21.633 27.9851 21.633 27.5373C21.633 27.0895 21.633 26.4925 21.633 26.194C21.633 25.8955 21.932 25.597 21.932 25.2985C21.932 25 22.0815 23.3582 22.0815 22.9104C22.0815 22.597 22.5151 21.8358 22.7393 21.3731C22.6646 21.791 22.6496 22.4179 23.128 22.6119C23.7111 22.8507 25.1014 22.4478 25.7592 22.194C26.0433 22.0895 26.3423 22 26.6413 21.9254C26.9104 21.8657 27.1646 21.791 27.1646 21.7164C27.1646 21.5672 26.432 20.1194 26.7011 19.9403C26.6413 20.1045 27.628 22.6418 28.3456 22.8955C28.4652 22.9403 28.5699 23.0448 28.6297 23.1642C28.839 23.597 29.3323 24.4627 30.0499 24.9254C30.1247 24.9701 30.1845 25.0298 30.1994 25.1194C30.2443 25.2239 30.3041 25.388 30.3639 25.5373C30.5134 25.8955 30.6031 26.2686 30.6031 26.6567V27.0149C30.6031 27.388 30.5582 27.6866 30.4835 28C30.4685 28.0895 30.4087 28.1642 30.334 28.2089C30.0649 28.3731 29.4669 28.7612 29.7061 28.8806H29.8257C29.9004 28.8806 29.9901 28.9104 30.035 28.9701C30.0499 29 30.0948 29.0298 30.1546 29.0298H30.8722C30.9769 29.0298 31.0666 28.9552 31.0815 28.8507C31.1114 28.6567 31.1413 28.3283 31.0516 28.1343C30.9769 27.7612 31.1264 26.806 31.1264 26.1194C31.1264 25.5224 31.5001 25 31.2011 24.7015C30.9021 24.403 30.4536 24.1045 30.4536 22.7612C30.4536 21.5672 30.0948 20.2537 29.9154 19.9701C29.9004 19.9552 29.9154 19.9254 29.9453 19.9254C30.0051 19.9403 30.0948 19.9701 30.2293 20.0298C30.2891 20.0597 30.319 20.1343 30.2891 20.194C30.2144 20.4179 30.3639 21.0298 30.9021 21.2686C31.4254 21.4925 31.5001 21.4179 31.5001 21.4179C31.5749 21.2985 30.932 20.2089 30.4536 19.9254C30.02 19.6567 29.7958 19.6269 29.5566 19.1791C28.3905 16.9701 27.643 17.5075 27.2393 17.0149C26.6413 16.2686 26.1928 15.3731 25.1463 15.2239C24.324 15.1045 23.741 15.0149 22.7543 15.7463C22.4852 15.9403 22.1862 16.0895 21.8722 16.2089C21.3938 16.3731 20.6463 16.7313 20.3622 17.0149C19.9137 17.4627 19.5699 17.8806 19.3905 17.9851C19.1214 18.1343 17.8805 18.2089 17.6712 17.4627C17.432 16.597 17.6712 15.5224 17.5217 15.5224C17.432 15.5224 17.2526 15.4925 17.133 15.4776C17.0582 15.4627 16.9984 15.403 16.9984 15.3134C16.9984 15.2239 17.0732 15.1492 17.1629 15.1492L17.2675 15.2985ZM16.3855 14.6567C16.2659 14.7164 15.9818 14.8209 15.8622 14.5224C15.8473 14.4925 15.8622 14.4627 15.8921 14.4478C15.9968 14.388 16.2808 14.2836 16.4154 14.5522C16.4303 14.597 16.4154 14.6418 16.3855 14.6567Z" fill="#FC8C54"/>
<path d="M23.0233 28.209C23.0233 28.209 22.7841 27.9702 23.2924 27.806C23.3971 27.7761 23.4569 27.6866 23.4569 27.5821C23.4569 27.2836 23.4868 26.6567 23.1728 26.1194C22.7542 25.3732 22.2011 25.1194 22.2758 24.7761C22.3506 24.4926 22.1263 22.9851 22.5748 22.9851C22.5748 22.9851 22.7243 23.7314 22.7243 23.8806C22.7243 24.0299 23.0233 24.1791 23.1728 24.4776C23.3223 24.7761 23.1728 25.0747 23.4718 25.6717C23.726 26.1642 23.6662 26.5672 23.8904 26.9403C24.025 27.1642 24.1297 27.3881 24.1895 27.6418C24.2493 27.9254 24.2941 28.209 24.2194 28.209C24.0699 28.209 23.1728 28.3582 23.0233 28.209Z" fill="#FC8C54"/>
<path d="M26.0134 28.5073C26.0134 28.5073 25.8639 28.0596 26.7609 27.7611C26.7609 27.7611 27.0599 27.164 27.2094 27.0148C27.3589 26.8655 27.6579 25.5223 27.6579 24.9252C27.6579 24.3282 27.5084 23.7312 27.2094 23.582C26.9104 23.4327 26.6114 22.6864 26.6114 22.5372C26.6114 22.3879 27.2094 22.0894 27.3589 22.2387C27.5084 22.3879 27.5084 22.6864 27.6579 22.6864C27.8074 22.6864 28.1064 22.9849 28.2559 23.2835C28.4054 23.582 28.2559 23.7312 28.4054 24.179C28.5549 24.6267 28.8539 24.9252 28.7044 25.0745C28.5549 25.2238 27.9569 26.2685 27.9569 26.567C27.9569 26.8655 27.8074 27.4626 27.6579 27.6118C27.5084 27.7611 27.3589 27.7611 27.3589 27.9103C27.3589 28.0596 27.5084 28.5073 27.3589 28.5073C27.2094 28.5073 27.2094 28.3581 27.0599 28.5073C26.9104 28.6566 26.1629 28.6566 26.0134 28.5073Z" fill="#FC8C54"/>
</svg>