<svg width="78" height="52" viewBox="0 0 78 52" fill="none" xmlns="http://www.w3.org/2000/svg">
<path d="M13.4602 4.52734V8.66665C9.09334 7.06267 5.1118 9.93431 6.01086 13.0647C6.83285 15.9363 10.6346 18.1094 14.7445 12.2885L16.0289 15.1343C12.1758 19.196 7.86034 20.2567 4.77786 18.4199C2.90269 17.3333 1.82382 15.2895 1.72107 13.1164C1.51557 9.13232 3.90449 6.26068 10.8914 5.56217C11.6621 5.48456 12.6896 5.04476 13.4602 4.52734Z" fill="#FC8C54"/>
<path d="M31.1845 13.8404C29.3864 9.75288 28.4873 5.74293 29.9001 1.93994C25.8929 2.37974 21.937 3.15586 18.0839 4.2683C18.3922 4.94094 18.8545 5.5877 19.3683 6.07924L21.6802 5.30312C19.5995 8.56283 18.1353 12.4176 16.7996 16.4275C18.5977 16.0394 20.3444 15.6514 21.6802 15.3927C21.5517 15.2116 21.449 15.0305 21.3205 14.8494C21.2178 14.6942 21.1921 14.5131 21.2435 14.3578C21.7315 12.521 22.1682 11.2016 22.4508 11.2792C23.6324 11.1499 24.9168 10.9688 26.3039 10.7618C26.4066 12.0554 25.8672 13.2713 25.7901 14.3837L31.1845 13.8404ZM25.7901 8.22651C25.7901 8.32999 25.7131 8.4076 25.6103 8.43347C24.8654 8.5887 24.1461 8.66631 23.4269 8.66631C23.3241 8.66631 23.2471 8.56283 23.2985 8.45934C23.915 7.03646 24.7113 5.84641 25.6617 4.88919C25.7131 4.83745 25.7901 4.86332 25.7901 4.94094C25.8929 6.05337 25.8929 7.13994 25.7901 8.22651Z" fill="#FC8C54"/>
<path d="M32.9825 13.582C33.2394 13.1422 33.4962 12.7283 33.7531 12.0298C34.0357 11.2537 34.1641 7.26958 33.8045 3.88052C33.7788 3.62182 33.676 3.38898 33.4962 3.20789C33.1623 2.87157 32.7513 2.43177 32.2375 1.9661C34.8577 1.81087 37.5805 1.75913 39.6355 1.9661C39.6612 1.9661 39.6869 1.99197 39.6612 2.01784C39.5841 2.30242 39.6098 2.53525 39.6869 2.74222C40.0465 3.98401 40.8942 4.99296 41.9987 5.84669C43.1803 4.91535 44.1051 3.95814 44.3106 3.00092C44.439 2.71635 44.4133 2.4059 44.3363 2.09545C44.3106 2.04371 44.362 1.9661 44.4133 1.9661C45.9803 1.785 48.2921 2.2248 50.7067 2.76809C50.3728 3.00092 49.9875 3.31137 49.6792 3.80291C48.2664 6.985 48.6518 10.0377 48.8829 13.1163C48.9086 13.5044 48.9857 13.9183 49.1398 14.2805C49.1655 14.3323 49.1141 14.3581 49.0627 14.3581C47.7784 14.0218 45.8261 13.8149 43.7712 13.6079C44.1308 13.1681 44.4647 12.7542 44.5418 12.3144C44.9271 10.6845 45.1583 8.84769 45.3124 6.88152C43.7455 8.4855 42.2556 9.96013 40.9455 11.0208C39.5584 9.62381 38.2741 8.14918 37.0925 6.62281C36.964 8.4855 36.964 10.2188 37.0925 11.7969C37.298 12.4178 37.6576 13.1163 38.1199 13.8666C36.5016 13.6596 34.421 13.5561 32.9825 13.582Z" fill="#FC8C54"/>
<path d="M65.6054 5.82106L65.1944 5.6917C64.9376 5.61409 64.7064 5.51061 64.4752 5.38125C59.3634 2.58723 55.2278 2.01807 52.659 4.96732C51.1178 6.7524 50.7068 9.21011 51.3233 11.4867C52.4792 15.5743 57.8736 17.4887 63.2679 14.9017L62.4973 12.0559C59.723 14.0738 55.8699 13.5564 55.3305 10.426C55.3048 10.3225 55.4076 10.2449 55.4846 10.2708L60.6992 11.0211C60.7762 10.3225 60.879 9.54643 60.956 8.6927L55.947 7.96832C55.7672 7.94245 55.6645 7.73548 55.7672 7.58026C57.3598 5.32951 60.3395 4.99319 63.5248 8.6927L65.6054 5.82106Z" fill="#FC8C54"/>
<path d="M67.6603 5.8208C67.8402 6.10538 67.9172 6.41583 67.9429 6.72627C67.9943 7.24369 67.8915 7.73523 67.7374 8.22677L65.4512 15.1342C65.2201 15.8069 64.8347 16.4536 64.3467 16.9452L73.851 20.3084L75.906 17.4626C75.0583 17.6437 74.1849 17.5919 73.3629 17.3332L69.8181 16.2208C69.7667 16.1949 69.741 16.1432 69.741 16.0914C70.3318 13.8407 70.9997 11.8228 71.719 10.1412C72.1043 9.23573 72.7464 8.45961 73.5428 7.91632H73.5684L67.6603 5.8208Z" fill="#FC8C54"/>
<path d="M29.6689 26.5172C29.6689 26.5172 30.4909 26.362 30.6964 25.7411C30.722 25.6893 30.7477 25.6376 30.7734 25.5859C30.6964 25.5341 30.5679 25.353 30.311 25.6117C30.0542 25.8704 30.0542 25.8704 29.7973 25.8704C29.7973 25.8704 29.5404 25.6117 30.0542 25.353C30.3367 25.1978 30.722 25.2237 30.9789 25.2754C31.0303 25.1202 30.8762 24.9908 30.0028 24.965C29.7459 24.965 29.4634 24.9132 29.2065 24.8615L29.0267 24.8356C28.7441 24.7839 28.2818 24.6545 28.0249 24.5252C27.8708 24.4475 26.4323 24.3182 26.047 24.4475C25.8671 24.4993 25.636 24.551 25.4561 24.551C25.3277 24.5769 25.1736 24.5769 25.0451 24.551C24.9167 24.5252 24.6855 24.5252 24.5057 24.7063C24.3773 24.8356 24.2488 24.965 24.2488 24.965H24.6085C24.7112 24.965 24.7626 25.0426 24.7626 25.1202L24.6598 25.353C24.6855 25.353 24.069 25.2237 23.7608 25.4824C23.5039 25.6893 23.5039 25.948 23.5039 25.9998C23.5039 25.9998 23.5039 25.9998 23.5039 26.1291H25.6873V26.3878H23.581C23.5553 26.5172 23.8892 26.9053 24.403 26.9053C24.5571 26.8276 24.5057 26.8794 24.5314 26.7759H24.7883C24.9167 26.7759 24.9938 26.7759 25.0451 26.7759C25.0451 26.7759 25.4818 27.2157 26.1497 27.2933C26.2525 27.2933 26.3552 27.3709 26.3809 27.4744C26.4579 27.7331 26.6378 28.0177 26.8433 28.3281C26.8433 28.3281 26.8433 32.2087 28.1276 33.761C29.3863 35.2873 30.645 37.3311 34.3953 36.6326C34.4981 36.6068 34.5751 36.6585 34.6008 36.762C35.2944 38.2107 35.7568 39.9182 36.065 41.8068C36.0907 41.962 36.065 42.0913 36.0393 42.2466C35.9366 42.6346 35.7311 43.4625 36.0393 44.2127C36.0907 44.3162 36.1164 44.4197 36.1164 44.549V45.9719C36.1164 46.955 35.9623 47.964 35.654 48.8953C35.6283 48.9729 35.577 49.0247 35.4999 49.0764C35.1403 49.2058 34.1128 49.6456 34.344 50.0595H34.8577V50.3182C34.8577 50.3182 36.9127 50.5769 36.9127 50.0595C36.9127 49.5421 37.1696 48.5073 37.1696 47.7311C37.1696 46.955 37.1696 45.9202 37.1696 45.4028C37.1696 44.8854 37.6833 44.3679 37.6833 43.8505C37.6833 43.3331 37.9402 40.4874 37.9402 39.7112C37.9402 39.1679 38.6851 37.8485 39.0704 37.0466C38.942 37.7709 38.9163 38.8575 39.7383 39.1938C40.7401 39.6077 43.129 38.9092 44.2593 38.4694C44.7473 38.2883 45.2611 38.1331 45.7748 38.0038C46.2372 37.9003 46.6739 37.7709 46.6739 37.6416C46.6739 37.3829 45.4152 34.8734 45.8776 34.563C45.7748 34.8476 47.4702 39.2456 48.7032 39.6854C48.9087 39.763 49.0885 39.9441 49.1912 40.151C49.5509 40.9013 50.3985 42.4018 51.6315 43.2038C51.76 43.2814 51.8627 43.3849 51.8884 43.5401C51.9655 43.7212 52.0682 44.0058 52.171 44.2645C52.4278 44.8854 52.582 45.5321 52.582 46.2048V46.8257C52.582 47.4724 52.5049 47.9898 52.3765 48.5331C52.3508 48.6883 52.248 48.8177 52.1196 48.8953C51.6572 49.1799 50.6297 49.8525 51.0407 50.0595H51.2462C51.3747 50.0595 51.5288 50.1112 51.6058 50.2147C51.6315 50.2665 51.7086 50.3182 51.8113 50.3182H53.0443C53.2242 50.3182 53.3783 50.1888 53.404 50.0077C53.4553 49.6714 53.5067 49.1023 53.3526 48.766C53.2242 48.1192 53.481 46.4635 53.481 45.2734C53.481 44.2386 54.1232 43.3331 53.6095 42.8157C53.0957 42.2983 52.3251 41.7809 52.3251 39.4525C52.3251 37.3829 51.7086 35.1063 51.4004 34.6147C51.3747 34.5888 51.4004 34.5371 51.4517 34.5371C51.5545 34.563 51.7086 34.6147 51.9398 34.7182C52.0425 34.7699 52.0939 34.8993 52.0425 35.0028C51.9141 35.3908 52.171 36.4515 53.0957 36.8655C53.9948 37.2535 54.1232 37.1242 54.1232 37.1242C54.2516 36.9172 53.1471 35.0286 52.3251 34.5371C51.5802 34.0714 51.1949 34.0197 50.7839 33.2436C48.7802 29.4147 47.4959 30.3461 46.8023 29.4923C45.7748 28.1988 45.0042 26.6466 43.2061 26.3878C41.7933 26.1809 40.7915 26.0257 39.0961 27.2933C38.6337 27.6296 38.12 27.8883 37.5806 28.0953C36.7586 28.3799 35.4742 29.0008 34.9861 29.4923C34.2155 30.2684 33.6247 30.9928 33.3165 31.1739C32.8541 31.4326 30.722 31.562 30.3624 30.2684C29.9514 28.7679 30.3624 26.9053 30.1056 26.9053C29.9514 26.9053 29.6432 26.8535 29.4377 26.8276C29.3092 26.8018 29.2065 26.6983 29.2065 26.5431C29.2065 26.3878 29.3349 26.2585 29.4891 26.2585L29.6689 26.5172ZM28.1533 25.4048C27.9478 25.5082 27.4598 25.6893 27.2543 25.1719C27.2286 25.1202 27.2543 25.0684 27.3056 25.0426C27.4854 24.9391 27.9735 24.758 28.2047 25.2237C28.2304 25.3013 28.2047 25.3789 28.1533 25.4048Z" fill="#FC8C54"/>
<path d="M39.5586 48.8955C39.5586 48.8955 39.1476 48.4816 40.021 48.197C40.2008 48.1453 40.3035 47.9901 40.3035 47.809C40.3035 47.2916 40.3549 46.205 39.8155 45.2737C39.0962 43.9801 38.1458 43.5403 38.2742 42.9453C38.4026 42.4538 38.0173 39.8408 38.788 39.8408C38.788 39.8408 39.0448 41.1344 39.0448 41.3931C39.0448 41.6518 39.5586 41.9105 39.8155 42.4279C40.0723 42.9453 39.8155 43.4627 40.3292 44.4975C40.7659 45.3513 40.6631 46.0498 41.0484 46.6965C41.2796 47.0846 41.4594 47.4727 41.5622 47.9125C41.6649 48.404 41.742 48.8955 41.6136 48.8955C41.3567 48.8955 39.8155 49.1542 39.5586 48.8955Z" fill="#FC8C54"/>
<path d="M44.696 49.4127C44.696 49.4127 44.4391 48.6366 45.9803 48.1192C45.9803 48.1192 46.4941 47.0844 46.751 46.8257C47.0078 46.567 47.5216 44.2386 47.5216 43.2038C47.5216 42.169 47.2647 41.1341 46.751 40.8754C46.2372 40.6167 45.7235 39.3232 45.7235 39.0645C45.7235 38.8058 46.751 38.2884 47.0078 38.5471C47.2647 38.8058 47.2647 39.3232 47.5216 39.3232C47.7785 39.3232 48.2922 39.8406 48.5491 40.358C48.8059 40.8754 48.5491 41.1341 48.8059 41.9103C49.0628 42.6864 49.5766 43.2038 49.3197 43.4625C49.0628 43.7212 48.0353 45.5321 48.0353 46.0496C48.0353 46.567 47.7785 47.6018 47.5216 47.8605C47.2647 48.1192 47.0078 48.1192 47.0078 48.3779C47.0078 48.6366 47.2647 49.4127 47.0078 49.4127C46.751 49.4127 46.751 49.154 46.4941 49.4127C46.2372 49.6715 44.9529 49.6715 44.696 49.4127Z" fill="#FC8C54"/>
</svg>
