<?xml version="1.0" standalone="no"?>
<!DOCTYPE svg PUBLIC "-//W3C//DTD SVG 20010904//EN"
 "http://www.w3.org/TR/2001/REC-SVG-20010904/DTD/svg10.dtd">
<svg version="1.0" xmlns="http://www.w3.org/2000/svg"
 width="700.000000pt" height="700.000000pt" viewBox="0 0 700.000000 700.000000"
 preserveAspectRatio="xMidYMid meet">
<metadata>
Created by potrace 1.11, written by Peter Selinger 2001-2013
</metadata>
<g transform="translate(0.000000,700.000000) scale(0.100000,-0.100000)"
fill="#000000" stroke="none">
<path d="M3038 6995 c-2 -1 -37 -5 -78 -8 -41 -4 -76 -7 -77 -7 -1 0 27 -42
62 -93 35 -51 68 -110 74 -132 16 -60 25 -301 26 -655 0 -449 -8 -529 -70
-694 l-25 -66 93 -1 c50 0 106 -2 122 -4 17 -2 57 -6 90 -9 33 -3 86 -9 118
-14 31 -5 57 -6 57 -2 0 3 -11 35 -25 71 -14 35 -36 101 -49 146 -22 79 -23
96 -23 428 0 190 3 347 6 350 4 2 16 -13 26 -33 92 -174 324 -562 337 -562 11
0 167 213 293 399 l117 174 -6 -131 c-4 -72 -9 -141 -11 -154 -2 -13 -6 -59
-10 -103 -8 -110 -34 -319 -47 -385 -6 -30 -23 -81 -39 -112 -32 -63 -32 -63
43 -72 53 -7 106 -16 158 -26 25 -6 57 -12 71 -14 14 -2 62 -14 107 -26 78
-21 100 -23 95 -8 -1 3 -5 21 -8 40 -3 18 -7 44 -10 58 -18 102 -27 768 -12
930 15 167 62 400 95 465 8 17 30 51 48 77 l33 47 -82 27 c-113 36 -251 71
-317 80 -61 8 -169 12 -186 7 -7 -3 -10 -26 -9 -60 5 -119 -49 -258 -155 -400
-34 -46 -65 -83 -69 -83 -10 0 -73 85 -110 148 -64 109 -113 259 -113 344 1
42 -2 47 -26 54 -25 7 -506 16 -514 9z"/>
<path d="M2570 6969 c-93 -17 -108 -20 -215 -45 -219 -51 -485 -135 -692 -219
-103 -42 -108 -45 -106 -72 2 -23 72 -178 101 -221 7 -10 32 -1 107 38 54 28
101 49 105 48 4 -2 -12 -52 -36 -113 -72 -177 -229 -671 -259 -810 -2 -11 -18
-74 -35 -140 -16 -66 -32 -129 -34 -140 -2 -11 -14 -60 -26 -110 -11 -49 -28
-117 -36 -151 -23 -99 -28 -97 94 -57 59 20 159 51 222 71 63 19 117 36 119
38 2 2 -5 25 -17 51 -19 45 -22 93 -8 158 2 11 16 78 31 149 15 71 34 150 43
174 l17 44 165 34 c91 18 175 36 188 39 23 6 23 4 21 -72 -1 -43 -10 -136 -20
-208 -10 -71 -21 -152 -24 -178 l-6 -49 43 6 c24 3 54 8 68 10 21 4 121 19
195 31 11 1 62 9 113 16 87 12 93 14 87 34 -51 170 -126 503 -145 648 -6 45
-13 93 -15 107 -37 247 -16 693 41 883 6 19 -10 20 -86 6z m-294 -666 c-1
-122 -4 -224 -7 -227 -20 -21 -212 -49 -227 -34 -23 23 110 357 196 492 25 40
26 41 32 16 4 -14 6 -125 6 -247z"/>
<path d="M5143 6824 c-178 -36 -322 -187 -408 -426 -70 -196 -93 -396 -72
-628 43 -466 314 -778 676 -778 154 0 297 49 458 156 10 6 8 29 -6 102 -11 52
-22 109 -24 125 -24 144 -29 170 -32 173 -2 2 -16 -8 -32 -23 -49 -47 -143
-103 -200 -120 -137 -40 -266 3 -348 115 -45 61 -83 164 -87 232 -3 57 -1 59
62 45 14 -3 99 -22 190 -41 91 -19 179 -39 196 -45 17 -5 36 -6 42 -2 5 3 13
56 17 116 12 183 12 208 -5 211 -8 2 -55 12 -105 23 -49 10 -144 31 -210 46
-162 35 -155 32 -155 64 0 31 62 133 106 175 167 158 373 78 566 -220 29 -46
56 -83 59 -83 3 -1 48 88 101 197 l95 197 -36 19 c-20 10 -72 47 -116 81 -303
236 -538 329 -732 289z"/>
<path d="M1070 6586 c-57 -56 -161 -107 -245 -119 -66 -10 -210 -50 -278 -78
-260 -107 -435 -304 -503 -563 -40 -152 -55 -408 -33 -549 5 -28 11 -69 14
-89 16 -108 75 -271 131 -363 111 -185 273 -290 443 -287 75 2 87 4 156 27
179 60 384 243 556 497 l40 59 -56 187 c-31 103 -58 193 -61 201 -2 8 -23 -21
-45 -65 -55 -106 -135 -228 -192 -290 -97 -107 -221 -164 -307 -141 -160 42
-285 260 -294 512 -6 161 60 332 170 441 143 142 320 169 527 79 16 -7 17 10
17 279 0 157 -3 286 -8 286 -4 0 -19 -11 -32 -24z"/>
<path d="M6227 6418 c13 -22 15 -40 18 -138 2 -78 -4 -123 -32 -250 -19 -85
-36 -166 -39 -180 -3 -14 -14 -65 -25 -115 -12 -49 -22 -99 -24 -110 -3 -20
-26 -120 -45 -200 -10 -45 -48 -220 -54 -250 -16 -83 -56 -200 -91 -262 -17
-31 -20 -45 -12 -51 7 -5 66 -37 132 -72 66 -34 143 -75 170 -90 28 -15 100
-53 160 -85 125 -66 272 -143 361 -190 l61 -33 72 152 c40 83 81 168 92 189
10 21 19 42 19 47 0 5 -24 6 -54 3 -68 -7 -128 8 -231 56 -44 21 -126 60 -182
86 -67 31 -103 54 -103 64 0 37 102 520 145 684 62 242 101 334 181 433 29 36
31 43 16 47 -9 3 -57 28 -107 55 -49 26 -157 83 -240 127 -82 43 -154 82 -159
86 -15 14 -38 11 -29 -3z"/>
<path d="M1640 3779 c-19 -5 -63 -10 -98 -10 -56 0 -67 -4 -95 -29 l-32 -29
28 -1 c15 0 30 -7 33 -15 9 -23 -13 -43 -40 -38 -44 9 -93 -15 -111 -53 -9
-19 -15 -40 -12 -47 2 -8 43 -12 138 -13 166 -2 159 -1 159 -19 0 -13 -23 -15
-145 -15 -145 0 -146 0 -135 -21 7 -11 30 -29 53 -39 36 -16 44 -17 67 -5 32
17 61 10 118 -26 24 -15 60 -30 80 -34 34 -5 40 -12 75 -80 34 -65 39 -83 42
-162 2 -48 6 -106 9 -128 3 -22 8 -62 11 -90 22 -184 91 -392 154 -462 9 -10
42 -53 74 -95 165 -218 333 -317 547 -322 52 -2 126 2 163 9 79 13 72 19 117
-90 41 -98 108 -331 127 -435 2 -14 8 -41 13 -60 23 -95 28 -197 11 -243 -15
-41 -13 -155 5 -216 34 -123 3 -564 -47 -675 -6 -13 -33 -34 -62 -47 -64 -30
-117 -75 -117 -100 0 -15 7 -19 35 -19 28 0 35 -4 35 -19 0 -22 35 -28 150
-26 122 3 120 1 136 120 3 28 8 64 11 80 4 31 11 215 16 431 2 68 8 128 14
135 27 35 52 132 58 225 3 55 8 122 10 149 4 52 13 212 20 328 4 77 14 113 62
217 20 41 46 99 59 127 14 29 26 53 27 53 1 0 1 -31 -1 -70 -4 -82 16 -156 53
-190 45 -42 158 -56 275 -35 19 4 46 9 60 12 59 10 149 37 253 74 62 22 170
58 241 79 71 21 134 44 139 49 8 8 4 29 -12 73 -86 231 -116 347 -94 361 5 3
9 -3 10 -12 7 -85 168 -451 255 -579 34 -50 107 -122 123 -122 18 0 59 -51 86
-105 36 -75 143 -234 191 -286 24 -25 65 -62 91 -84 26 -21 54 -52 61 -69 29
-69 75 -214 82 -256 15 -87 8 -354 -10 -412 -2 -7 -7 -25 -10 -40 -4 -17 -23
-39 -54 -60 -117 -81 -165 -148 -104 -148 15 0 38 -9 52 -20 21 -16 41 -20
122 -20 92 0 98 1 113 24 20 30 25 138 10 186 -11 36 -12 122 -1 245 4 38 9
122 12 185 4 104 12 170 29 240 4 14 9 52 12 85 l5 61 -56 64 c-104 118 -131
194 -141 400 -9 176 -15 264 -20 295 -2 17 -7 44 -9 60 -11 82 -49 243 -72
306 -14 39 -24 72 -22 74 2 2 22 -4 44 -14 41 -19 41 -19 37 -65 -12 -113 69
-224 194 -266 94 -32 102 -24 62 60 -71 150 -159 255 -270 321 -87 52 -122 92
-186 209 -90 167 -179 278 -269 341 -23 16 -80 45 -124 64 -92 38 -93 39 -204
194 -188 265 -296 325 -586 325 -131 1 -178 -19 -405 -173 -33 -23 -94 -55
-135 -72 -268 -112 -314 -144 -502 -351 -75 -81 -94 -97 -132 -107 -114 -28
-246 -1 -311 64 -36 36 -43 51 -57 120 -10 50 -17 133 -17 223 0 78 -1 158 -1
177 0 19 -3 34 -7 33 -5 -1 -31 1 -60 5 -63 9 -81 37 -46 72 15 16 17 16 33
-5 16 -21 18 -21 52 -7 64 27 126 109 96 129 -18 11 -19 11 -57 -22 -38 -34
-59 -38 -68 -13 -4 11 4 25 26 44 28 23 42 27 87 26 30 -1 54 1 54 4 0 17 -33
29 -91 34 -115 10 -203 27 -269 52 -50 19 -90 25 -175 28 -60 2 -126 0 -145
-6z m295 -91 c19 -28 9 -45 -32 -53 -66 -12 -117 52 -56 72 37 13 71 5 88 -19z"/>
<path d="M4470 1543 c-29 -16 -57 -37 -61 -48 -15 -44 75 -220 137 -265 92
-68 124 -294 78 -535 -3 -11 -7 -36 -10 -55 -15 -101 -57 -227 -92 -279 -20
-31 -37 -58 -37 -61 -1 -3 -11 -24 -23 -47 -17 -32 -33 -47 -69 -63 -80 -35
-138 -105 -126 -151 11 -41 183 -51 239 -14 15 10 34 13 55 8 l32 -6 -7 84
c-6 78 -5 85 15 99 43 30 56 46 72 88 21 53 35 115 42 184 3 29 10 67 17 83
29 76 89 197 127 257 22 36 41 68 41 72 0 4 -20 54 -45 111 -37 84 -46 118
-51 182 -6 98 -9 107 -50 170 -33 50 -69 83 -107 96 -9 4 -25 23 -34 44 -37
82 -58 89 -143 46z"/>
<path d="M3448 1367 c-31 -24 -41 -88 -43 -277 -1 -146 1 -191 13 -215 8 -16
18 -32 22 -35 29 -21 145 -183 173 -242 43 -91 58 -153 61 -260 3 -103 -4
-125 -49 -143 -38 -17 -70 -57 -62 -79 3 -8 21 -19 39 -24 35 -9 57 -9 186 3
l75 7 -7 61 c-8 78 -24 132 -70 229 -20 42 -45 116 -56 163 -11 47 -33 120
-49 163 -36 93 -47 139 -55 215 -7 67 -21 99 -75 161 -25 29 -42 60 -46 84 -3
20 -10 64 -16 97 -6 33 -11 68 -13 77 -3 25 -11 29 -28 15z"/>
</g>
</svg>
